<mxfile host="app.diagrams.net" agent="Mozilla/5.0 (Macintosh; Intel Mac OS X 10_15_7) AppleWebKit/537.36 (KHTML, like Gecko) Chrome/130.0.0.0 Safari/537.36" version="24.8.4">
  <diagram name="Page-1" id="CYhbxXl5cnnea0aICzzV">
    <mxGraphModel dx="437" dy="351" grid="1" gridSize="10" guides="1" tooltips="1" connect="1" arrows="1" fold="1" page="1" pageScale="1" pageWidth="850" pageHeight="1100" math="0" shadow="0">
      <root>
        <mxCell id="0" />
        <mxCell id="1" parent="0" />
        <mxCell id="ZpwrDCRGx_NDIAUTxhdb-2" value="" style="html=1;shadow=0;dashed=0;shape=mxgraph.bootstrap.rrect;rSize=5;strokeColor=#999999;fillColor=#ffffff;fontColor=#777777;whiteSpace=wrap;align=left;verticalAlign=middle;fontStyle=0;fontSize=14;spacing=15;" vertex="1" parent="1">
          <mxGeometry x="430" y="420" width="140" height="30" as="geometry" />
        </mxCell>
        <mxCell id="kBiesCPEOQcfk9krNRWG-109" value="Submit game" style="html=1;shadow=0;dashed=0;shape=mxgraph.bootstrap.rrect;rSize=5;strokeColor=none;strokeWidth=1;fillColor=#0085FC;fontColor=#FFFFFF;whiteSpace=wrap;align=center;verticalAlign=middle;spacingLeft=0;fontStyle=0;fontSize=14;spacing=5;" parent="1" vertex="1">
          <mxGeometry x="110" y="1280" width="140" height="30" as="geometry" />
        </mxCell>
        <mxCell id="kBiesCPEOQcfk9krNRWG-136" value="Tutorial" style="html=1;shadow=0;dashed=0;shape=mxgraph.bootstrap.rrect;rSize=5;strokeColor=none;strokeWidth=1;fillColor=#6C767D;fontColor=#FFFFFF;whiteSpace=wrap;align=center;verticalAlign=middle;spacingLeft=0;fontStyle=0;fontSize=14;spacing=5;" parent="1" vertex="1">
          <mxGeometry x="110" y="940" width="140" height="30" as="geometry" />
        </mxCell>
        <mxCell id="kBiesCPEOQcfk9krNRWG-105" value="" style="swimlane;fontStyle=0;childLayout=stackLayout;horizontal=1;startSize=0;horizontalStack=0;resizeParent=1;resizeParentMax=0;resizeLast=0;collapsible=0;marginBottom=0;whiteSpace=wrap;html=1;strokeColor=none;fillColor=none;" parent="1" vertex="1">
          <mxGeometry x="110" y="870" width="140" height="50" as="geometry" />
        </mxCell>
        <mxCell id="kBiesCPEOQcfk9krNRWG-106" value="Game: d7aa2c06&lt;div style=&quot;&quot;&gt;Opponent: second.user&lt;/div&gt;&lt;div style=&quot;font-size: 10px;&quot;&gt;Winner: you&lt;/div&gt;" style="text;strokeColor=#DFDFDF;fillColor=#FFFFFF;align=left;verticalAlign=middle;spacingLeft=10;spacingRight=10;overflow=hidden;points=[[0,0.5],[1,0.5]];portConstraint=eastwest;rotatable=0;whiteSpace=wrap;html=1;shape=mxgraph.bootstrap.topButton;rSize=5;fontColor=#4B5259;fontSize=10;" parent="kBiesCPEOQcfk9krNRWG-105" vertex="1">
          <mxGeometry width="140" height="50" as="geometry" />
        </mxCell>
        <mxCell id="kBiesCPEOQcfk9krNRWG-1" value="" style="verticalLabelPosition=bottom;verticalAlign=top;html=1;shadow=0;dashed=0;strokeWidth=1;shape=mxgraph.android.phone2;strokeColor=#c0c0c0;" parent="1" vertex="1">
          <mxGeometry x="80" y="80" width="200" height="390" as="geometry" />
        </mxCell>
        <mxCell id="kBiesCPEOQcfk9krNRWG-12" value="Username" style="text;html=1;align=left;verticalAlign=middle;resizable=0;points=[];autosize=1;strokeColor=none;fillColor=none;spacing=0;fontColor=#4B5259;" parent="1" vertex="1">
          <mxGeometry x="110" y="220" width="70" height="20" as="geometry" />
        </mxCell>
        <mxCell id="kBiesCPEOQcfk9krNRWG-14" value="Password" style="text;html=1;align=left;verticalAlign=middle;resizable=0;points=[];autosize=1;strokeColor=none;fillColor=none;strokeWidth=1;spacing=0;fontColor=#4B5259;" parent="1" vertex="1">
          <mxGeometry x="110" y="280" width="70" height="20" as="geometry" />
        </mxCell>
        <mxCell id="kBiesCPEOQcfk9krNRWG-30" value="Nim Game" style="text;html=1;align=center;verticalAlign=middle;resizable=0;points=[];autosize=1;strokeColor=none;fillColor=none;fontSize=16;fontColor=#4B5259;fontStyle=1" parent="1" vertex="1">
          <mxGeometry x="130" y="130" width="100" height="30" as="geometry" />
        </mxCell>
        <mxCell id="kBiesCPEOQcfk9krNRWG-34" value="" style="html=1;shadow=0;dashed=0;shape=mxgraph.bootstrap.rrect;rSize=5;strokeColor=#999999;fillColor=#ffffff;fontColor=#777777;whiteSpace=wrap;align=left;verticalAlign=middle;fontStyle=0;fontSize=14;spacing=15;" parent="1" vertex="1">
          <mxGeometry x="110" y="240" width="140" height="30" as="geometry" />
        </mxCell>
        <mxCell id="kBiesCPEOQcfk9krNRWG-35" value="" style="html=1;shadow=0;dashed=0;shape=mxgraph.bootstrap.rrect;rSize=5;strokeColor=#999999;fillColor=#ffffff;fontColor=#777777;whiteSpace=wrap;align=left;verticalAlign=middle;fontStyle=0;fontSize=14;spacing=15;" parent="1" vertex="1">
          <mxGeometry x="110" y="300" width="140" height="30" as="geometry" />
        </mxCell>
        <mxCell id="kBiesCPEOQcfk9krNRWG-36" value="Sign in" style="html=1;shadow=0;dashed=0;shape=mxgraph.bootstrap.rrect;rSize=5;strokeColor=none;strokeWidth=1;fillColor=#0085FC;fontColor=#FFFFFF;whiteSpace=wrap;align=center;verticalAlign=middle;spacingLeft=0;fontStyle=0;fontSize=14;spacing=5;" parent="1" vertex="1">
          <mxGeometry x="110" y="350" width="140" height="30" as="geometry" />
        </mxCell>
        <mxCell id="kBiesCPEOQcfk9krNRWG-59" value="" style="group" parent="1" vertex="1" connectable="0">
          <mxGeometry x="90" y="180" width="180" height="30" as="geometry" />
        </mxCell>
        <mxCell id="kBiesCPEOQcfk9krNRWG-53" value="Sign in" style="html=1;shadow=0;dashed=0;shape=mxgraph.bootstrap.tabTop;strokeColor=#DFDFDF;fillColor=#ffffff;rSize=5;perimeter=none;whiteSpace=wrap;resizeWidth=1;align=center;spacing=20;fontSize=14;fontColor=#4B5259;" parent="kBiesCPEOQcfk9krNRWG-59" vertex="1">
          <mxGeometry width="90" height="26.666666666666664" as="geometry" />
        </mxCell>
        <mxCell id="kBiesCPEOQcfk9krNRWG-56" value="Sign up" style="strokeColor=none;fillColor=none;rSize=5;perimeter=none;whiteSpace=wrap;resizeWidth=1;align=center;spacing=20;fontSize=14;fontColor=#4B5259;" parent="kBiesCPEOQcfk9krNRWG-59" vertex="1">
          <mxGeometry x="90" width="90" height="26.666666666666664" as="geometry" />
        </mxCell>
        <mxCell id="kBiesCPEOQcfk9krNRWG-58" value="" style="shape=line;strokeColor=#dddddd;" parent="kBiesCPEOQcfk9krNRWG-59" vertex="1">
          <mxGeometry x="90" y="23.333333333333332" width="90" height="6.666666666666666" as="geometry" />
        </mxCell>
        <mxCell id="kBiesCPEOQcfk9krNRWG-60" value="" style="verticalLabelPosition=bottom;verticalAlign=top;html=1;shadow=0;dashed=0;strokeWidth=1;shape=mxgraph.android.phone2;strokeColor=#c0c0c0;" parent="1" vertex="1">
          <mxGeometry x="400" y="80" width="200" height="390" as="geometry" />
        </mxCell>
        <mxCell id="kBiesCPEOQcfk9krNRWG-61" value="Username" style="text;html=1;align=left;verticalAlign=middle;resizable=0;points=[];autosize=1;strokeColor=none;fillColor=none;spacing=0;fontColor=#4B5259;" parent="1" vertex="1">
          <mxGeometry x="430" y="220" width="70" height="20" as="geometry" />
        </mxCell>
        <mxCell id="kBiesCPEOQcfk9krNRWG-62" value="Email address" style="text;html=1;align=left;verticalAlign=middle;resizable=0;points=[];autosize=1;strokeColor=none;fillColor=none;strokeWidth=1;spacing=0;fontColor=#4B5259;" parent="1" vertex="1">
          <mxGeometry x="430" y="340" width="100" height="20" as="geometry" />
        </mxCell>
        <mxCell id="kBiesCPEOQcfk9krNRWG-63" value="Nim Game" style="text;html=1;align=center;verticalAlign=middle;resizable=0;points=[];autosize=1;strokeColor=none;fillColor=none;fontSize=16;fontStyle=1;fontColor=#4B5259;" parent="1" vertex="1">
          <mxGeometry x="450" y="130" width="100" height="30" as="geometry" />
        </mxCell>
        <mxCell id="kBiesCPEOQcfk9krNRWG-64" value="" style="html=1;shadow=0;dashed=0;shape=mxgraph.bootstrap.rrect;rSize=5;strokeColor=#999999;fillColor=#ffffff;fontColor=#777777;whiteSpace=wrap;align=left;verticalAlign=middle;fontStyle=0;fontSize=14;spacing=15;" parent="1" vertex="1">
          <mxGeometry x="430" y="240" width="140" height="30" as="geometry" />
        </mxCell>
        <mxCell id="kBiesCPEOQcfk9krNRWG-65" value="" style="html=1;shadow=0;dashed=0;shape=mxgraph.bootstrap.rrect;rSize=5;strokeColor=#999999;fillColor=#ffffff;fontColor=#777777;whiteSpace=wrap;align=left;verticalAlign=middle;fontStyle=0;fontSize=14;spacing=15;" parent="1" vertex="1">
          <mxGeometry x="430" y="360" width="140" height="30" as="geometry" />
        </mxCell>
        <mxCell id="kBiesCPEOQcfk9krNRWG-67" value="" style="group" parent="1" vertex="1" connectable="0">
          <mxGeometry x="410" y="180" width="180" height="30" as="geometry" />
        </mxCell>
        <mxCell id="kBiesCPEOQcfk9krNRWG-69" value="Sign in" style="strokeColor=none;fillColor=none;rSize=5;perimeter=none;whiteSpace=wrap;resizeWidth=1;align=center;spacing=20;fontSize=14;fontColor=#4B5259;" parent="kBiesCPEOQcfk9krNRWG-67" vertex="1">
          <mxGeometry width="90" height="26.666666666666664" as="geometry" />
        </mxCell>
        <mxCell id="kBiesCPEOQcfk9krNRWG-70" value="" style="shape=line;strokeColor=#dddddd;" parent="kBiesCPEOQcfk9krNRWG-67" vertex="1">
          <mxGeometry y="23.333333333333332" width="90" height="6.666666666666666" as="geometry" />
        </mxCell>
        <mxCell id="kBiesCPEOQcfk9krNRWG-68" value="Sign up" style="html=1;shadow=0;dashed=0;shape=mxgraph.bootstrap.tabTop;strokeColor=#DFDFDF;fillColor=#ffffff;rSize=5;perimeter=none;whiteSpace=wrap;resizeWidth=1;align=center;spacing=20;fontSize=14;fontColor=#4B5259;" parent="kBiesCPEOQcfk9krNRWG-67" vertex="1">
          <mxGeometry x="90" y="1.5987211554602254e-14" width="90" height="26.666666666666664" as="geometry" />
        </mxCell>
        <mxCell id="kBiesCPEOQcfk9krNRWG-71" value="Password" style="text;html=1;align=left;verticalAlign=middle;resizable=0;points=[];autosize=1;strokeColor=none;fillColor=none;strokeWidth=1;spacing=0;fontColor=#4B5259;" parent="1" vertex="1">
          <mxGeometry x="430" y="280" width="70" height="20" as="geometry" />
        </mxCell>
        <mxCell id="kBiesCPEOQcfk9krNRWG-72" value="" style="html=1;shadow=0;dashed=0;shape=mxgraph.bootstrap.rrect;rSize=5;strokeColor=#999999;fillColor=#ffffff;fontColor=#777777;whiteSpace=wrap;align=left;verticalAlign=middle;fontStyle=0;fontSize=14;spacing=15;" parent="1" vertex="1">
          <mxGeometry x="430" y="300" width="140" height="30" as="geometry" />
        </mxCell>
        <mxCell id="kBiesCPEOQcfk9krNRWG-84" value="" style="verticalLabelPosition=bottom;verticalAlign=top;html=1;shadow=0;dashed=0;strokeWidth=1;shape=mxgraph.android.phone2;strokeColor=#c0c0c0;" parent="1" vertex="1">
          <mxGeometry x="80" y="600" width="200" height="390" as="geometry" />
        </mxCell>
        <mxCell id="kBiesCPEOQcfk9krNRWG-85" value="Sign in" style="text;html=1;align=center;verticalAlign=middle;resizable=0;points=[];autosize=1;strokeColor=none;fillColor=none;" parent="1" vertex="1">
          <mxGeometry x="150" y="40" width="60" height="30" as="geometry" />
        </mxCell>
        <mxCell id="kBiesCPEOQcfk9krNRWG-86" value="Sign up" style="text;html=1;align=center;verticalAlign=middle;resizable=0;points=[];autosize=1;strokeColor=none;fillColor=none;" parent="1" vertex="1">
          <mxGeometry x="470" y="40" width="60" height="30" as="geometry" />
        </mxCell>
        <mxCell id="kBiesCPEOQcfk9krNRWG-87" value="Home" style="text;html=1;align=center;verticalAlign=middle;resizable=0;points=[];autosize=1;strokeColor=none;fillColor=none;" parent="1" vertex="1">
          <mxGeometry x="150" y="560" width="60" height="30" as="geometry" />
        </mxCell>
        <mxCell id="kBiesCPEOQcfk9krNRWG-88" value="New game" style="html=1;shadow=0;dashed=0;shape=mxgraph.bootstrap.rrect;rSize=5;strokeColor=none;strokeWidth=1;fillColor=#0085FC;fontColor=#FFFFFF;whiteSpace=wrap;align=center;verticalAlign=middle;spacingLeft=0;fontStyle=0;fontSize=14;spacing=5;" parent="1" vertex="1">
          <mxGeometry x="110" y="800" width="140" height="30" as="geometry" />
        </mxCell>
        <mxCell id="kBiesCPEOQcfk9krNRWG-89" value="" style="verticalLabelPosition=bottom;verticalAlign=top;html=1;shadow=0;dashed=0;strokeWidth=1;shape=mxgraph.android.phone2;strokeColor=#c0c0c0;" parent="1" vertex="1">
          <mxGeometry x="80" y="1120" width="200" height="390" as="geometry" />
        </mxCell>
        <mxCell id="kBiesCPEOQcfk9krNRWG-90" value="New game" style="text;html=1;align=center;verticalAlign=middle;resizable=0;points=[];autosize=1;strokeColor=none;fillColor=none;" parent="1" vertex="1">
          <mxGeometry x="140" y="1080" width="80" height="30" as="geometry" />
        </mxCell>
        <mxCell id="kBiesCPEOQcfk9krNRWG-91" value="" style="verticalLabelPosition=bottom;verticalAlign=top;html=1;shadow=0;dashed=0;strokeWidth=1;shape=mxgraph.android.phone2;strokeColor=#c0c0c0;" parent="1" vertex="1">
          <mxGeometry x="400" y="1120" width="200" height="390" as="geometry" />
        </mxCell>
        <mxCell id="kBiesCPEOQcfk9krNRWG-92" value="Running game" style="text;html=1;align=center;verticalAlign=middle;resizable=0;points=[];autosize=1;strokeColor=none;fillColor=none;" parent="1" vertex="1">
          <mxGeometry x="450" y="1080" width="100" height="30" as="geometry" />
        </mxCell>
        <mxCell id="kBiesCPEOQcfk9krNRWG-93" value="Submit move" style="html=1;shadow=0;dashed=0;shape=mxgraph.bootstrap.rrect;rSize=5;strokeColor=none;strokeWidth=1;fillColor=#0085FC;fontColor=#FFFFFF;whiteSpace=wrap;align=center;verticalAlign=middle;spacingLeft=0;fontStyle=0;fontSize=14;spacing=5;" parent="1" vertex="1">
          <mxGeometry x="430" y="1440" width="140" height="30" as="geometry" />
        </mxCell>
        <mxCell id="kBiesCPEOQcfk9krNRWG-97" value="" style="swimlane;fontStyle=0;childLayout=stackLayout;horizontal=1;startSize=0;horizontalStack=0;resizeParent=1;resizeParentMax=0;resizeLast=0;collapsible=0;marginBottom=0;whiteSpace=wrap;html=1;strokeColor=none;fillColor=none;" parent="1" vertex="1">
          <mxGeometry x="110" y="680" width="140" height="100" as="geometry" />
        </mxCell>
        <mxCell id="kBiesCPEOQcfk9krNRWG-98" value="Game: 97f671f0&lt;div style=&quot;font-size: 10px;&quot;&gt;Opponent: second.user&lt;/div&gt;&lt;div style=&quot;font-size: 10px;&quot;&gt;Turn: you&lt;/div&gt;" style="text;strokeColor=#DFDFDF;fillColor=#FFFFFF;align=left;verticalAlign=middle;spacingLeft=10;spacingRight=10;overflow=hidden;points=[[0,0.5],[1,0.5]];portConstraint=eastwest;rotatable=0;whiteSpace=wrap;html=1;shape=mxgraph.bootstrap.topButton;rSize=5;fontColor=#4B5259;fontSize=10;" parent="kBiesCPEOQcfk9krNRWG-97" vertex="1">
          <mxGeometry width="140" height="50" as="geometry" />
        </mxCell>
        <mxCell id="kBiesCPEOQcfk9krNRWG-102" value="Game: a25c857c&lt;div style=&quot;font-size: 10px;&quot;&gt;Opponent: second.user&lt;/div&gt;&lt;div style=&quot;font-size: 10px;&quot;&gt;Turn: opponent&lt;/div&gt;" style="text;strokeColor=#DFDFDF;fillColor=#FFFFFF;align=left;verticalAlign=middle;spacingLeft=10;spacingRight=10;overflow=hidden;points=[[0,0.5],[1,0.5]];portConstraint=eastwest;rotatable=0;whiteSpace=wrap;html=1;shape=mxgraph.bootstrap.bottomButton;rSize=5;fontColor=#4B5259;fontSize=10;" parent="kBiesCPEOQcfk9krNRWG-97" vertex="1">
          <mxGeometry y="50" width="140" height="50" as="geometry" />
        </mxCell>
        <mxCell id="kBiesCPEOQcfk9krNRWG-104" value="Running games" style="text;html=1;align=center;verticalAlign=middle;resizable=0;points=[];autosize=1;strokeColor=none;fillColor=none;fontSize=14;fontColor=#4B5259;" parent="1" vertex="1">
          <mxGeometry x="120" y="650" width="120" height="30" as="geometry" />
        </mxCell>
        <mxCell id="kBiesCPEOQcfk9krNRWG-108" value="Finished games" style="text;html=1;align=center;verticalAlign=middle;resizable=0;points=[];autosize=1;strokeColor=none;fillColor=none;fontSize=14;fontColor=#4B5259;" parent="1" vertex="1">
          <mxGeometry x="120" y="840" width="120" height="30" as="geometry" />
        </mxCell>
        <mxCell id="kBiesCPEOQcfk9krNRWG-117" value="New game" style="text;html=1;align=center;verticalAlign=middle;resizable=0;points=[];autosize=1;strokeColor=none;fillColor=none;fontSize=14;fontColor=#4B5259;" parent="1" vertex="1">
          <mxGeometry x="135" y="1170" width="90" height="30" as="geometry" />
        </mxCell>
        <mxCell id="kBiesCPEOQcfk9krNRWG-118" value="Game: 97f671f0&lt;br style=&quot;font-size: 12px;&quot;&gt;Opponent: second.user&lt;div style=&quot;font-size: 12px;&quot;&gt;Turn: you&lt;/div&gt;" style="text;html=1;align=left;verticalAlign=middle;resizable=0;points=[];autosize=1;strokeColor=none;fillColor=none;fontSize=12;fontColor=#4B5259;spacingLeft=0;" parent="1" vertex="1">
          <mxGeometry x="430" y="1170" width="150" height="60" as="geometry" />
        </mxCell>
        <mxCell id="kBiesCPEOQcfk9krNRWG-119" value="Heap 1" style="text;html=1;align=left;verticalAlign=middle;resizable=0;points=[];autosize=1;strokeColor=none;fillColor=none;spacing=0;fontColor=#4B5259;" parent="1" vertex="1">
          <mxGeometry x="430" y="1250" width="60" height="20" as="geometry" />
        </mxCell>
        <mxCell id="kBiesCPEOQcfk9krNRWG-120" value="Heap 3" style="text;html=1;align=left;verticalAlign=middle;resizable=0;points=[];autosize=1;strokeColor=none;fillColor=none;strokeWidth=1;spacing=0;fontColor=#4B5259;" parent="1" vertex="1">
          <mxGeometry x="430" y="1370" width="60" height="20" as="geometry" />
        </mxCell>
        <mxCell id="kBiesCPEOQcfk9krNRWG-121" value="3" style="html=1;shadow=0;dashed=0;shape=mxgraph.bootstrap.rrect;rSize=5;strokeColor=#999999;fillColor=#ffffff;fontColor=#777777;whiteSpace=wrap;align=left;verticalAlign=middle;fontStyle=0;fontSize=14;spacing=15;" parent="1" vertex="1">
          <mxGeometry x="430" y="1270" width="140" height="30" as="geometry" />
        </mxCell>
        <mxCell id="kBiesCPEOQcfk9krNRWG-122" value="1" style="html=1;shadow=0;dashed=0;shape=mxgraph.bootstrap.rrect;rSize=5;strokeColor=#999999;fillColor=#ffffff;fontColor=#777777;whiteSpace=wrap;align=left;verticalAlign=middle;fontStyle=0;fontSize=14;spacing=15;" parent="1" vertex="1">
          <mxGeometry x="430" y="1390" width="140" height="30" as="geometry" />
        </mxCell>
        <mxCell id="kBiesCPEOQcfk9krNRWG-123" value="Heap 2" style="text;html=1;align=left;verticalAlign=middle;resizable=0;points=[];autosize=1;strokeColor=none;fillColor=none;strokeWidth=1;spacing=0;fontColor=#4B5259;" parent="1" vertex="1">
          <mxGeometry x="430" y="1310" width="60" height="20" as="geometry" />
        </mxCell>
        <mxCell id="kBiesCPEOQcfk9krNRWG-124" value="3" style="html=1;shadow=0;dashed=0;shape=mxgraph.bootstrap.rrect;rSize=5;strokeColor=#999999;fillColor=#ffffff;fontColor=#777777;whiteSpace=wrap;align=left;verticalAlign=middle;fontStyle=0;fontSize=14;spacing=15;" parent="1" vertex="1">
          <mxGeometry x="430" y="1330" width="140" height="30" as="geometry" />
        </mxCell>
        <mxCell id="kBiesCPEOQcfk9krNRWG-134" value="" style="verticalLabelPosition=bottom;verticalAlign=top;html=1;shadow=0;dashed=0;strokeWidth=1;shape=mxgraph.android.phone2;strokeColor=#c0c0c0;" parent="1" vertex="1">
          <mxGeometry x="400" y="600" width="200" height="390" as="geometry" />
        </mxCell>
        <mxCell id="kBiesCPEOQcfk9krNRWG-135" value="Tutorial" style="text;html=1;align=center;verticalAlign=middle;resizable=0;points=[];autosize=1;strokeColor=none;fillColor=none;" parent="1" vertex="1">
          <mxGeometry x="470" y="560" width="60" height="30" as="geometry" />
        </mxCell>
        <mxCell id="kBiesCPEOQcfk9krNRWG-137" value="Tutorial" style="text;html=1;align=center;verticalAlign=middle;resizable=0;points=[];autosize=1;strokeColor=none;fillColor=none;fontSize=14;fontColor=#4B5259;" parent="1" vertex="1">
          <mxGeometry x="465" y="650" width="70" height="30" as="geometry" />
        </mxCell>
        <UserObject label="&lt;div style=&quot;font-size: 12px;&quot;&gt;Nim is a game where two players take turns removing objects from a number of heaps.&lt;/div&gt;&lt;div style=&quot;font-size: 12px;&quot;&gt;&lt;br style=&quot;font-size: 12px;&quot;&gt;&lt;/div&gt;&lt;div style=&quot;font-size: 12px;&quot;&gt;On each turn, a player removes one or more objects from a single heap.&lt;/div&gt;&lt;div style=&quot;font-size: 12px;&quot;&gt;&lt;br style=&quot;font-size: 12px;&quot;&gt;&lt;/div&gt;&lt;div style=&quot;font-size: 12px;&quot;&gt;The player who takes the last object loses.&lt;/div&gt;" placeholders="1" name="Variable" id="kBiesCPEOQcfk9krNRWG-140">
          <mxCell style="text;html=1;strokeColor=none;fillColor=none;align=center;verticalAlign=top;whiteSpace=wrap;overflow=hidden;fontColor=#4B5259;spacing=2;spacingLeft=0;spacingRight=0;horizontal=1;fontSize=12;" parent="1" vertex="1">
            <mxGeometry x="430" y="690" width="140" height="250" as="geometry" />
          </mxCell>
        </UserObject>
        <mxCell id="kBiesCPEOQcfk9krNRWG-141" value="Opponent" style="text;html=1;align=left;verticalAlign=middle;resizable=0;points=[];autosize=1;strokeColor=none;fillColor=none;spacing=0;fontColor=#4B5259;" parent="1" vertex="1">
          <mxGeometry x="110" y="1210" width="70" height="20" as="geometry" />
        </mxCell>
        <mxCell id="kBiesCPEOQcfk9krNRWG-142" value="second.user" style="html=1;shadow=0;dashed=0;shape=mxgraph.bootstrap.rrect;rSize=5;strokeColor=#999999;fillColor=#ffffff;fontColor=#777777;whiteSpace=wrap;align=left;verticalAlign=middle;fontStyle=0;fontSize=14;spacing=15;" parent="1" vertex="1">
          <mxGeometry x="110" y="1230" width="140" height="30" as="geometry" />
        </mxCell>
        <mxCell id="ZpwrDCRGx_NDIAUTxhdb-1" value="Phone number" style="text;html=1;align=left;verticalAlign=middle;resizable=0;points=[];autosize=1;strokeColor=none;fillColor=none;strokeWidth=1;spacing=0;fontColor=#4B5259;" vertex="1" parent="1">
          <mxGeometry x="430" y="400" width="100" height="20" as="geometry" />
        </mxCell>
      </root>
    </mxGraphModel>
  </diagram>
</mxfile>
